<?xml version="1.0" encoding="UTF-8"?>
<svg id="Layer_1" xmlns="http://www.w3.org/2000/svg" version="1.1" viewBox="0 0 648.9 648.9">
  <!-- Generator: Adobe Illustrator 30.1.0, SVG Export Plug-In . SVG Version: 2.1.1 Build 136)  -->
  <defs>
    <style>
      .st0 {
        fill: #de2535;
      }
    </style>
  </defs>
  <path class="st0" d="M324.4,648.9c-86.7,0-168.1-33.7-229.4-95S0,411.1,0,324.4,33.7,156.3,95,95,237.8,0,324.4,0s168.1,33.7,229.4,95c61.3,61.3,95,142.7,95,229.4s-33.7,168.1-95,229.4c-61.3,61.3-142.7,95-229.4,95ZM324.4,16c-82.4,0-159.8,32.1-218.1,90.3S16,242,16,324.4s32.1,159.8,90.3,218.1c58.3,58.3,135.7,90.3,218.1,90.3s159.8-32.1,218.1-90.3c58.3-58.3,90.3-135.7,90.3-218.1s-32.1-159.8-90.3-218.1c-58.3-58.3-135.7-90.3-218.1-90.3Z"/>
  <path class="st0" d="M522.4,189.7l-436.5,113.6c10.7-122.4,113.4-218.3,238.5-218.3s154.9,41.5,198,104.7Z"/>
  <path class="st0" d="M563,345.6c-10.7,122.4-113.4,218.3-238.5,218.3s-154.9-41.5-198-104.7l436.5-113.6Z"/>
  <g>
    <path class="st0" d="M96.8,334.6c5-2.6,13.2-5.7,21.8-8.1,12.2-3.3,20.7-3.4,27.9-.2,5.9,2.3,10.4,7.1,12.5,14.6,2.5,9.1-1.4,18.8-10.3,25.2v.3c9.7-.2,22.3,4.4,26.1,18.4,2.2,8.2.7,15.2-2.8,21.2-5,7.9-14.9,13.6-30.3,17.8-8.4,2.3-15.1,3.5-19.3,4.1l-25.5-93.2ZM119.7,370.1l11.1-3c12.9-3.5,18.7-12.4,16.2-21.5-3-11.1-12.7-13.2-25-9.8-5.6,1.5-8.7,2.8-10.6,3.8l8.4,30.5ZM132.1,415.5c2.5-.2,6.1-1.1,10.4-2.2,12.7-3.5,23.1-11.3,19.3-25.1-3.5-12.9-16.1-15.2-29.5-11.6l-10.1,2.8,9.9,36.1Z"/>
    <path class="st0" d="M235.5,349.4l-36.8,10.1,9.4,34.2,41.1-11.2,2.8,10.3-53.3,14.6-25.9-94.8,51.2-14,2.8,10.3-39,10.7,8.2,30,36.8-10.1,2.8,10.1Z"/>
    <path class="st0" d="M254.1,290.2l25.9,94.8-12.2,3.3-25.9-94.8,12.2-3.3Z"/>
    <path class="st0" d="M294.9,279.1l12.2-3.3,17.4,63.4c6.9,25.2-3.4,36.3-19.7,40.8-4.5,1.2-10.3,1.7-13.7,1.3l-.9-10.5c2.8.3,6.7.1,10.8-1,11-3,16.1-9.7,11-28.3l-17.1-62.4Z"/>
    <path class="st0" d="M339.7,266.8l25.9,94.8-12.2,3.3-25.9-94.8,12.2-3.3Z"/>
    <path class="st0" d="M387.1,355.7l-25.9-94.8,13.4-3.7,43.5,39.6c10.1,9.2,18.3,17.7,25.4,26.1l.2-.2c-4.6-12.3-8-23.8-12.1-38.6l-10.9-39.7,11.5-3.2,25.9,94.8-12.4,3.4-43.3-39.9c-9.5-8.7-18.8-17.8-26.4-26.8l-.4.3c4,11.8,7.4,23.1,11.7,38.8l11.1,40.5-11.5,3.2Z"/>
    <path class="st0" d="M550.6,306.5c-4.9,3.5-14.9,9.7-27.7,13.2-14.3,3.9-27.2,3.5-38.9-2.8-10.3-5.6-18.8-16.9-22.9-31.7-7.6-28.3,6.2-54.3,37.9-63,11-3,20.2-3,24.8-2.1l-.2,10.8c-5.7-.9-12.5-1-22.1,1.7-23.1,6.3-34.2,24.8-27.7,48.5,6.6,24,25,34.3,47,28.2,8-2.2,13.2-4.8,15.6-7l-7.7-28.3-19.3,5.3-2.7-9.8,31.2-8.5,12.5,45.6Z"/>
  </g>
</svg>