<?xml version="1.0" encoding="UTF-8"?>
<svg id="Layer_1" xmlns="http://www.w3.org/2000/svg" version="1.1" viewBox="0 0 648.9 648.9">
  <!-- Generator: Adobe Illustrator 30.1.0, SVG Export Plug-In . SVG Version: 2.1.1 Build 136)  -->
  <defs>
    <style>
      .st0 {
        fill: #de2535;
      }

      .st1 {
        isolation: isolate;
      }

      .st2 {
        fill: none;
        stroke: #de2535;
        stroke-miterlimit: 10;
        stroke-width: 16px;
      }
    </style>
  </defs>
  <circle class="st2" cx="324.4" cy="324.4" r="316.4"/>
  <path class="st0" d="M522.4,189.7l-436.5,113.6c10.7-122.4,113.4-218.3,238.5-218.3s154.9,41.5,198,104.7h0Z"/>
  <path class="st0" d="M563,345.6c-10.7,122.4-113.4,218.3-238.5,218.3s-154.9-41.5-198-104.7l436.5-113.6Z"/>
  <g class="st1">
    <g class="st1">
      <path class="st0" d="M44.3,358.2l8.4,30.9,35.7-9.8-8.4-30.9,9.6-2.6,20.2,73.8-9.6,2.6-9.5-34.6-35.7,9.8,9.5,34.6-9.5,2.6-20.2-73.8,9.5-2.6Z"/>
      <path class="st0" d="M131.9,388.6l-1.3,25.3-9.9,2.7,4.9-80.6,11.5-3.1,45.4,66.9-10.2,2.8-14.2-21.1-26.2,7.2ZM154,374.6l-13-19.3c-3-4.4-5.3-8.4-7.5-12.4h-.2c.1,4.7.1,9.6,0,14.4l-1.4,23.3,22.2-6.1Z"/>
      <path class="st0" d="M193.3,396.8l-20.2-73.8,10.4-2.8,33.9,30.9c7.8,7.2,14.2,13.8,19.8,20.4l.2-.2c-3.6-9.6-6.2-18.5-9.4-30l-8.4-30.9,9-2.5,20.2,73.8-9.6,2.6-33.7-31c-7.4-6.8-14.6-13.9-20.5-20.9l-.3.2c3.1,9.2,5.7,18,9.1,30.2l8.6,31.5-9,2.5Z"/>
      <path class="st0" d="M320.6,358.4c-3.9,2.7-11.6,7.5-21.6,10.3-11.2,3.1-21.1,2.7-30.3-2.2-8-4.4-14.7-13.2-17.8-24.7-5.9-22,4.8-42.3,29.5-49,8.5-2.3,15.7-2.3,19.3-1.6l-.2,8.4c-4.4-.7-9.7-.7-17.2,1.3-18,4.9-26.6,19.3-21.6,37.8,5.1,18.7,19.4,26.7,36.6,22,6.2-1.7,10.3-3.8,12.2-5.4l-6-22-15,4.1-2.1-7.7,24.3-6.6,9.7,35.5Z"/>
      <path class="st0" d="M329.5,353.5l24.6-71.1v-.3c0,0-37.5,10.2-37.5,10.2l-2.2-8,49.8-13.6,1.6,5.8-24.4,70.8v.3c0,0,41.4-11.3,41.4-11.3l2.2,8-53.9,14.7-1.5-5.6Z"/>
      <path class="st0" d="M385.9,264.8l8.4,30.9,35.7-9.8-8.4-30.9,9.6-2.6,20.2,73.8-9.6,2.6-9.5-34.6-35.7,9.8,9.5,34.6-9.5,2.6-20.2-73.8,9.5-2.6Z"/>
      <path class="st0" d="M520.7,266.7c6.9,25.4-4.8,43.1-23.6,48.2-19.5,5.3-37.3-6-43.4-28.4-6.4-23.4,4-42.7,23.7-48.1,20.1-5.5,37.4,6.4,43.4,28.3ZM463.8,283.6c4.3,15.8,16.7,27.6,31.7,23.4,15.1-4.1,19.8-20.4,15.3-37.1-4-14.7-15.9-27.9-31.7-23.6-15.8,4.3-19.7,21-15.2,37.2Z"/>
      <path class="st0" d="M532.7,224.6l11.9,43.7c4.5,16.5,13.8,21.5,23.6,18.8,10.9-3,16-12.1,11.5-28.4l-11.9-43.7,9.6-2.6,11.8,43c6.2,22.7-3.2,35.2-19.2,39.6-15.1,4.1-28.9-1.4-35.1-24.3l-11.9-43.5,9.6-2.6Z"/>
    </g>
  </g>
</svg>