<?xml version="1.0" encoding="UTF-8"?>
<svg id="Layer_1" xmlns="http://www.w3.org/2000/svg" version="1.1" viewBox="0 0 648.9 648.9">
  <!-- Generator: Adobe Illustrator 30.1.0, SVG Export Plug-In . SVG Version: 2.1.1 Build 136)  -->
  <defs>
    <style>
      .st0 {
        fill: #de2535;
      }

      .st1 {
        isolation: isolate;
      }

      .st2 {
        fill: none;
        stroke: #de2535;
        stroke-miterlimit: 10;
        stroke-width: 16px;
      }
    </style>
  </defs>
  <circle class="st2" cx="324.4" cy="324.4" r="316.4"/>
  <path class="st0" d="M522.4,189.7l-436.5,113.6c10.7-122.4,113.4-218.3,238.5-218.3s154.9,41.5,198,104.7h0Z"/>
  <path class="st0" d="M563,345.6c-10.7,122.4-113.4,218.3-238.5,218.3s-154.9-41.5-198-104.7l436.5-113.6Z"/>
  <g class="st1">
    <g class="st1">
      <path class="st0" d="M48.4,430.4l24.6-71.1v-.3c0,0-37.5,10.2-37.5,10.2l-2.2-8,49.8-13.6,1.6,5.8-24.4,70.8v.3c0,0,41.4-11.3,41.4-11.3l2.2,8-53.9,14.7-1.5-5.6Z"/>
      <path class="st0" d="M104.8,341.7l8.4,30.9,35.7-9.8-8.4-30.9,9.6-2.6,20.2,73.8-9.6,2.6-9.5-34.6-35.7,9.8,9.5,34.6-9.5,2.6-20.2-73.8,9.5-2.6Z"/>
      <path class="st0" d="M215.6,353.5l-28.7,7.8,7.3,26.6,32-8.7,2.2,8-41.5,11.4-20.2-73.8,39.8-10.9,2.2,8-30.3,8.3,6.4,23.3,28.7-7.8,2.2,7.9Z"/>
      <path class="st0" d="M240.7,383.8l-20.2-73.8,10.4-2.8,33.9,30.9c7.8,7.2,14.2,13.8,19.8,20.4l.2-.2c-3.6-9.6-6.2-18.5-9.4-30l-8.4-30.9,9-2.5,20.2,73.8-9.6,2.6-33.7-31c-7.4-6.8-14.6-13.9-20.5-20.9l-.3.2c3.1,9.2,5.7,18,9.1,30.2l8.6,31.5-9,2.5Z"/>
      <path class="st0" d="M368,345.4c-3.8,2.7-11.6,7.5-21.6,10.3-11.2,3.1-21.1,2.7-30.3-2.2-8-4.4-14.7-13.2-17.8-24.7-5.9-22,4.8-42.3,29.5-49,8.5-2.3,15.7-2.3,19.3-1.6l-.2,8.4c-4.4-.7-9.7-.7-17.2,1.3-18,4.9-26.6,19.3-21.6,37.8,5.1,18.7,19.4,26.7,36.6,22,6.2-1.7,10.3-3.8,12.2-5.4l-6-22-15,4.1-2.1-7.7,24.3-6.6,9.7,35.5Z"/>
      <path class="st0" d="M363.5,271.9c5.6-2.5,12.3-5,19.8-7.1,13.7-3.7,24.3-3.2,32.4,1,8.2,4.2,14.4,11.7,17.6,23.6,3.3,12,2.3,22.9-2.8,31.6-5,8.8-15.4,15.6-29.7,19.5-6.8,1.9-12.6,3.1-17.5,3.9l-19.9-72.6ZM390.9,334.6c2.5-.2,6.1-1.1,9.8-2.1,20.4-5.6,28.3-20,22.9-39.9-4.7-17.4-17.5-25.8-37.7-20.3-4.9,1.3-8.5,2.8-10.9,4l15.9,58.2Z"/>
      <path class="st0" d="M445.7,248.4l20.2,73.8-9.5,2.6-20.2-73.8,9.5-2.6Z"/>
      <path class="st0" d="M482.5,317.6l-20.2-73.8,10.4-2.8,33.9,30.9c7.8,7.2,14.2,13.8,19.8,20.4l.2-.2c-3.6-9.6-6.2-18.5-9.4-30l-8.4-30.9,9-2.5,20.2,73.8-9.6,2.6-33.7-31c-7.4-6.8-14.6-13.9-20.5-20.9l-.3.2c3.1,9.2,5.7,18,9.1,30.2l8.6,31.5-9,2.5Z"/>
      <path class="st0" d="M609.8,279.3c-3.8,2.7-11.6,7.5-21.6,10.3-11.2,3.1-21.1,2.7-30.3-2.2-8-4.4-14.7-13.2-17.8-24.7-5.9-22,4.8-42.3,29.5-49,8.5-2.3,15.7-2.3,19.3-1.6l-.2,8.4c-4.4-.7-9.7-.7-17.2,1.3-18,4.9-26.6,19.3-21.6,37.8,5.1,18.7,19.4,26.7,36.6,22,6.2-1.7,10.3-3.8,12.2-5.4l-6-22-15,4.1-2.1-7.7,24.3-6.6,9.7,35.5Z"/>
    </g>
  </g>
</svg>