<?xml version="1.0" encoding="UTF-8"?>
<svg id="Layer_1" xmlns="http://www.w3.org/2000/svg" version="1.1" viewBox="0 0 226.7 226.7">
  <!-- Generator: Adobe Illustrator 30.1.0, SVG Export Plug-In . SVG Version: 2.1.1 Build 136)  -->
  <defs>
    <style>
      .st0 {
        fill: #dfe036;
      }

      .st1 {
        fill: none;
        stroke: #263268;
        stroke-linecap: round;
        stroke-linejoin: round;
        stroke-width: 9.4px;
      }
    </style>
  </defs>
  <circle class="st0" cx="113.4" cy="113.4" r="113.4"/>
  <path class="st1" d="M28.2,157L142.4,28.7c2.6-2.7,97,62.9,27.9,137.6-71.5,77.1-144.7-6.6-142.1-9.3h0Z"/>
  <path class="st1" d="M79.7,131.7s7.6,26.8,17.8,14.6c10.4-12.4-17.8-14.6-17.8-14.6Z"/>
  <path class="st1" d="M120.1,121.6s6.6,27.1,17.2,15.3c10.9-12-17.2-15.3-17.2-15.3Z"/>
  <path class="st1" d="M125.1,80.6s6.1,27.2,16.9,15.6c11-11.8-16.9-15.6-16.9-15.6Z"/>
  <path class="st1" d="M43.2,140.3s57.8,73.2,111.9,12.4c53.9-60.6-23.7-109-23.7-109"/>
</svg>