<?xml version="1.0" encoding="UTF-8"?>
<svg id="Layer_1" xmlns="http://www.w3.org/2000/svg" version="1.1" viewBox="0 0 226.7 226.7">
  <!-- Generator: Adobe Illustrator 30.1.0, SVG Export Plug-In . SVG Version: 2.1.1 Build 136)  -->
  <defs>
    <style>
      .st0 {
        stroke-width: 7.1px;
      }

      .st0, .st1, .st2 {
        fill: none;
        stroke: #fefdeb;
        stroke-linecap: round;
        stroke-linejoin: round;
      }

      .st1 {
        stroke-width: 5.3px;
      }

      .st2 {
        stroke-width: 6.2px;
      }

      .st3 {
        fill: #596f31;
      }

      .st4 {
        fill: #fefdeb;
      }
    </style>
  </defs>
  <circle class="st3" cx="113.4" cy="113.4" r="113.4"/>
  <path class="st4" d="M105.5,193.2c-5.3,0-10.9-.6-16.7-1.9-31.5-7.3-53.5-32.5-55-37.6-.7-2.3.4-3.9,1-4.5l101-113.3h0c2.8-3,6.6-.8,11.1,2.1,3.9,2.7,8.4,6.3,12.6,10.3,8.6,8.1,23.7,25,28.8,46.9,5.5,23.7-1.9,46.5-21.8,68-13.4,14.5-34.2,30.2-61,30.2h0ZM42.8,152.7c5,6.6,25.6,26.9,52.6,31.3,23.4,3.8,45.3-5.1,65.2-26.6,18.4-19.8,24.9-40.8,19.3-62.1-7.1-27.3-32-47.4-39.6-51.8l-97.4,109.4h0ZM37.8,152h0Z"/>
  <path class="st1" d="M83.4,129.6s6.7,23.7,15.7,12.9c9.2-11-15.7-12.9-15.7-12.9Z"/>
  <path class="st1" d="M119.1,120.7s5.8,24,15.2,13.5c9.6-10.6-15.2-13.5-15.2-13.5Z"/>
  <path class="st2" d="M123.6,84.4s5.4,24.1,15,13.8c9.7-10.4-15-13.8-15-13.8Z"/>
  <path class="st0" d="M51.1,137.2s51.1,64.8,99,11c47.9-53.8-21-96.4-21-96.4"/>
</svg>