<?xml version="1.0" encoding="UTF-8"?>
<svg id="Layer_1" xmlns="http://www.w3.org/2000/svg" version="1.1" viewBox="0 0 283.46 283.46">
  <!-- Generator: Adobe Illustrator 30.1.0, SVG Export Plug-In . SVG Version: 2.1.1 Build 136)  -->
  <defs>
    <style>
      .st0 {
        fill: #5c3a64;
      }

      .st1 {
        fill: #fefdeb;
      }
    </style>
  </defs>
  <circle class="st0" cx="141.73" cy="141.73" r="113.36"/>
  <path class="st1" d="M129.87,220.99c-10.09,10.02-26.1,10.15-36.11.13l-27.16-27.21c-9.84-9.86-9.36-25.88.37-35.63l14.89-14.9.02-33.98c0-11.75,4.64-22.82,12.82-31.06l6.28-6.32c10.08-10.14,26.22-10.07,36.37,0l4.26,4.23c13.32-15.13,36.34-15.89,50.56-1.63l14.69,14.72c13.62,13.65,19.45,32.99,15.56,52.5-3.38,16.96-14.9,32.22-31.2,40.39l-45.12,22.63-16.23,16.11ZM196.2,99.79l-14.82-14.82c-7.49-7.49-19.75-7.62-27.31-.08l-22.22,22.14c-3.02,3.01-7.8,2.76-10.6-.17s-2.75-7.56.23-10.54l9.53-9.53-4.42-4.39c-4.11-4.09-10.75-4.1-14.83,0l-6.48,6.5c-5.4,5.42-8.45,12.72-8.46,20.52l-.02,33.97,46.24,46.25,42.41-21.25c12.07-6.05,20.2-17.82,22.49-30.2,2.66-14.32-1.66-28.33-11.73-38.39ZM104.59,210.87c4.4,3.83,10.59,3.67,14.61-.36l11.79-11.82-41.64-41.63-11.82,11.79c-4.31,4.3-4.11,11.03.25,15.22l26.81,26.8Z"/>
</svg>