<?xml version="1.0" encoding="UTF-8"?>
<svg id="Layer_1" xmlns="http://www.w3.org/2000/svg" version="1.1" viewBox="0 0 226.7 226.7">
  <!-- Generator: Adobe Illustrator 30.1.0, SVG Export Plug-In . SVG Version: 2.1.1 Build 136)  -->
  <defs>
    <style>
      .st0 {
        fill: #cca7ce;
      }

      .st1 {
        fill: #263268;
      }
    </style>
  </defs>
  <circle class="st0" cx="113.4" cy="113.4" r="113.4"/>
  <path class="st1" d="M101.5,192.6c-10.1,10-26.1,10.1-36.1.1l-27.2-27.2c-9.8-9.9-9.4-25.9.4-35.6l14.9-14.9v-34c0-11.8,4.7-22.8,12.8-31.1l6.3-6.3c10.1-10.1,26.2-10.1,36.4,0l4.3,4.2c13.3-15.1,36.3-15.9,50.6-1.6l14.7,14.7c13.6,13.7,19.4,33,15.6,52.5-3.4,17-14.9,32.2-31.2,40.4l-45.1,22.6-16.2,16.1h0ZM167.8,71.4l-14.8-14.8c-7.5-7.5-19.8-7.6-27.3,0l-22.2,22.1c-3,3-7.8,2.8-10.6-.2s-2.8-7.6.2-10.5l9.5-9.5-4.4-4.4c-4.1-4.1-10.8-4.1-14.8,0l-6.5,6.5c-5.4,5.4-8.4,12.7-8.5,20.5v34s46.2,46.2,46.2,46.2l42.4-21.2c12.1-6.1,20.2-17.8,22.5-30.2,2.7-14.3-1.7-28.3-11.7-38.4h0ZM76.2,182.5c4.4,3.8,10.6,3.7,14.6-.4l11.8-11.8-41.6-41.6-11.8,11.8c-4.3,4.3-4.1,11,.2,15.2,0,0,26.8,26.8,26.8,26.8Z"/>
</svg>