<?xml version="1.0" encoding="UTF-8"?>
<svg id="Layer_1" xmlns="http://www.w3.org/2000/svg" version="1.1" viewBox="0 0 283.46 283.46">
  <!-- Generator: Adobe Illustrator 30.1.0, SVG Export Plug-In . SVG Version: 2.1.1 Build 136)  -->
  <defs>
    <style>
      .st0 {
        fill: none;
        stroke: #fefdeb;
        stroke-miterlimit: 10;
        stroke-width: 6px;
      }

      .st1 {
        fill: #55719e;
      }

      .st2 {
        fill: #fefdeb;
      }
    </style>
  </defs>
  <circle class="st1" cx="141.73" cy="137.96" r="113.36"/>
  <path class="st2" d="M147,57.88l.31.27,4.44.37c17.56,1.45,36.97,12.25,48.91,25.48s18.94,29.01,20.47,46.39c.09.99,0,1.73.61,2.23v.63s-.23.27-.32.35v8.38c.09.08.32.35.32.35v.94c-.6.5-.52,1.24-.61,2.23-1.53,17.38-8.83,33.5-20.47,46.39-1.77,1.96-3.39,3.58-5.35,5.35-17.06,15.41-39.05,22.69-62.1,20.43-17.16-1.68-33.03-8.92-45.78-20.43-14.68-13.26-24.63-32.89-25.85-52.74-.05-.14-.27-.6-.27-.6v-11.88c.2-.66.25-1.15.32-1.9,1.6-17.28,8.88-33.27,20.45-46.09,11.91-13.19,31.45-24.09,48.93-25.52l3.22-.26c.51-.04,1.13-.19,1.51-.34h11.26ZM211.97,137.93c0-38.99-31.61-70.6-70.6-70.6s-70.6,31.61-70.6,70.6,31.61,70.6,70.6,70.6,70.6-31.61,70.6-70.6Z"/>
  <path class="st2" d="M136.67,156.74c0,7.79-6.32,14.11-14.11,14.11s-14.11-6.32-14.11-14.11,6.32-14.11,14.11-14.11,14.11,6.32,14.11,14.11ZM126.57,159.18c.88-1.92.74-4.19-.78-5.7s-4.03-1.78-5.72-.61c-1.16.8-2.06,2.15-2.12,3.53-.12,2.8,2.16,5.05,4.94,4.95,1.48-.05,2.6-1.02,3.68-2.17Z"/>
  <path class="st2" d="M174.3,156.74c0,7.79-6.32,14.11-14.11,14.11s-14.11-6.32-14.11-14.11,6.32-14.11,14.11-14.11,14.11,6.32,14.11,14.11ZM164.26,158.8c1.14-2.15.43-4.38-1.45-5.82-1.64-1.25-4.33-1.03-5.88.52s-1.77,4.05-.63,5.71c1,1.46,2.62,2.32,4.22,2.14,1.44-.16,2.94-1.06,3.73-2.55Z"/>
  <path class="st2" d="M202.7,137.93c0,33.87-27.45,61.32-61.32,61.32s-61.32-27.45-61.32-61.32,27.45-61.32,61.32-61.32,61.32,27.45,61.32,61.32ZM193.14,137.93c0-28.59-23.18-51.77-51.77-51.77s-51.77,23.18-51.77,51.77,23.18,51.77,51.77,51.77,51.77-23.18,51.77-51.77Z"/>
  <path class="st2" d="M136.67,119.11c0,7.79-6.32,14.11-14.11,14.11s-14.11-6.32-14.11-14.11,6.32-14.11,14.11-14.11,14.11,6.32,14.11,14.11ZM125.86,122.3c1.52-1.59,1.51-3.77.76-5.53-1-1.16-2.16-2.21-3.73-2.27-2.77-.11-5.06,2.15-4.94,4.95.06,1.38.96,2.73,2.12,3.53,1.67,1.16,4.29.87,5.78-.69Z"/>
  <path class="st2" d="M174.3,119.11c0,7.79-6.32,14.11-14.11,14.11s-14.11-6.32-14.11-14.11,6.32-14.11,14.11-14.11,14.11,6.32,14.11,14.11ZM162.74,122.93c1.38-.99,2.19-2.51,2.05-4.02-.24-2.57-2.35-4.51-4.95-4.4-1.36.06-2.73.96-3.52,2.12-1.16,1.69-.85,4.25.63,5.73s4.07,1.82,5.8.57Z"/>
  <circle class="st1" cx="141.37" cy="137.96" r="53.61"/>
  <circle class="st0" cx="160.42" cy="119.09" r="10.72"/>
  <circle class="st0" cx="122.73" cy="119.11" r="10.72"/>
  <circle class="st0" cx="122.53" cy="156.74" r="10.72"/>
  <circle class="st0" cx="160.19" cy="156.74" r="10.72"/>
</svg>