<?xml version="1.0" encoding="UTF-8"?>
<svg id="Layer_1" xmlns="http://www.w3.org/2000/svg" version="1.1" viewBox="0 0 226.7 226.7">
  <!-- Generator: Adobe Illustrator 30.1.0, SVG Export Plug-In . SVG Version: 2.1.1 Build 136)  -->
  <defs>
    <style>
      .st0 {
        fill: #263268;
      }

      .st1 {
        fill: #b1e1ed;
      }
    </style>
  </defs>
  <circle class="st1" cx="113.4" cy="113.4" r="113.4"/>
  <g>
    <path class="st0" d="M118.8,33.3l.3.3,4.4.4c17.6,1.5,37,12.3,48.9,25.5s18.9,29,20.5,46.4c0,1,0,1.7.6,2.2v.6s-.2.3-.3.4v8.4c0,0,.3.4.3.4v.9c-.6.5-.5,1.2-.6,2.2-1.5,17.4-8.8,33.5-20.5,46.4-1.8,2-3.4,3.6-5.4,5.4-17.1,15.4-39.1,22.7-62.1,20.4-17.2-1.7-33-8.9-45.8-20.4-14.7-13.3-24.6-32.9-25.8-52.7,0-.1-.3-.6-.3-.6v-11.9c.2-.7.2-1.1.3-1.9,1.6-17.3,8.9-33.3,20.5-46.1,11.9-13.2,31.5-24.1,48.9-25.5l3.2-.3c.5,0,1.1-.2,1.5-.3h11.3ZM183.8,113.3c0-39-31.6-70.6-70.6-70.6s-70.6,31.6-70.6,70.6,31.6,70.6,70.6,70.6,70.6-31.6,70.6-70.6h0Z"/>
    <path class="st0" d="M108.5,132.1c0,7.8-6.3,14.1-14.1,14.1s-14.1-6.3-14.1-14.1,6.3-14.1,14.1-14.1,14.1,6.3,14.1,14.1ZM98.4,134.6c.9-1.9.7-4.2-.8-5.7s-4-1.8-5.7-.6c-1.2.8-2.1,2.1-2.1,3.5-.1,2.8,2.2,5.1,4.9,4.9,1.5,0,2.6-1,3.7-2.2Z"/>
    <path class="st0" d="M146.1,132.1c0,7.8-6.3,14.1-14.1,14.1s-14.1-6.3-14.1-14.1,6.3-14.1,14.1-14.1,14.1,6.3,14.1,14.1ZM136.1,134.2c1.1-2.1.4-4.4-1.4-5.8-1.6-1.2-4.3-1-5.9.5s-1.8,4.1-.6,5.7c1,1.5,2.6,2.3,4.2,2.1,1.4-.2,2.9-1.1,3.7-2.6h0Z"/>
    <path class="st0" d="M174.5,113.3c0,33.9-27.4,61.3-61.3,61.3s-61.3-27.4-61.3-61.3,27.5-61.3,61.3-61.3,61.3,27.5,61.3,61.3ZM165,113.3c0-28.6-23.2-51.8-51.8-51.8s-51.8,23.2-51.8,51.8,23.2,51.8,51.8,51.8,51.8-23.2,51.8-51.8Z"/>
    <g>
      <path class="st0" d="M108.5,94.5c0,7.8-6.3,14.1-14.1,14.1s-14.1-6.3-14.1-14.1,6.3-14.1,14.1-14.1,14.1,6.3,14.1,14.1ZM97.7,97.7c1.5-1.6,1.5-3.8.8-5.5-1-1.2-2.2-2.2-3.7-2.3-2.8-.1-5.1,2.2-4.9,4.9,0,1.4,1,2.7,2.1,3.5,1.7,1.2,4.3.9,5.8-.7h0Z"/>
      <path class="st0" d="M146.1,94.5c0,7.8-6.3,14.1-14.1,14.1s-14.1-6.3-14.1-14.1,6.3-14.1,14.1-14.1,14.1,6.3,14.1,14.1ZM134.6,98.3c1.4-1,2.2-2.5,2.1-4-.2-2.6-2.4-4.5-4.9-4.4-1.4,0-2.7,1-3.5,2.1-1.2,1.7-.9,4.2.6,5.7s4.1,1.8,5.8.6h0Z"/>
    </g>
  </g>
</svg>