<?xml version="1.0" encoding="UTF-8"?>
<svg id="Layer_1" xmlns="http://www.w3.org/2000/svg" version="1.1" viewBox="0 0 226.7 226.7">
  <!-- Generator: Adobe Illustrator 30.1.0, SVG Export Plug-In . SVG Version: 2.1.1 Build 136)  -->
  <defs>
    <style>
      .st0 {
        fill: #901a20;
      }

      .st1 {
        fill: #fefdeb;
      }
    </style>
  </defs>
  <circle class="st0" cx="113.4" cy="113.4" r="113.4"/>
  <path class="st1" d="M113.4,192.8c-43.2,0-78.4-35.2-78.4-78.4S70.1,35.9,113.4,35.9s78.4,35.2,78.4,78.4-35.2,78.4-78.4,78.4ZM113.4,45.8c-37.8,0-68.5,30.7-68.5,68.5s30.7,68.5,68.5,68.5,68.5-30.7,68.5-68.5-30.7-68.5-68.5-68.5Z"/>
  <path class="st1" d="M113.4,191.4c-25.2,0-45-34.6-45-78.8s19.4-75.4,45-75.4,44.9,32.2,45,75c0,.1,0,.2,0,.4,0,44.2-19.8,78.8-45,78.8ZM113.4,49.3c-8.3,0-16.2,5.9-22.3,16.6-6.9,12-10.6,28.6-10.6,46.8,0,36.2,15.1,66.7,33,66.7s32.9-30.3,33-66.4c0-.1,0-.2,0-.4,0-18.2-3.8-34.8-10.6-46.8-6.1-10.7-14.1-16.6-22.3-16.6Z"/>
  <path class="st1" d="M117.4,99.7c-39.5,0-70.8-9.7-72.8-10.3-2.7-.9-4.2-3.7-3.3-6.4.9-2.7,3.7-4.2,6.4-3.3.8.3,70.4,21.7,131.1,0,2.6-.9,5.6.4,6.5,3.1.9,2.7-.4,5.6-3.1,6.5-21.8,7.8-44.4,10.4-64.8,10.4Z"/>
  <path class="st1" d="M49.5,149.8c-2.1,0-4.1-1.3-4.8-3.4-.9-2.7.4-5.6,3.1-6.5,63.9-22.8,131.3-4.7,134.1-3.9,2.7.7,4.3,3.6,3.6,6.3-.7,2.7-3.6,4.3-6.3,3.6h0c-.7-.2-67.2-18-128,3.7-.6.2-1.1.3-1.7.3Z"/>
  <path class="st1" d="M113.4,191.4c-3.3,0-6-2.7-6-6V43.1c0-3.3,2.7-6,6-6s6,2.7,6,6v142.3c0,3.3-2.7,6-6,6Z"/>
</svg>