<?xml version="1.0" encoding="UTF-8"?>
<svg id="Layer_1" xmlns="http://www.w3.org/2000/svg" version="1.1" viewBox="0 0 283.46 283.46">
  <!-- Generator: Adobe Illustrator 30.1.0, SVG Export Plug-In . SVG Version: 2.1.1 Build 136)  -->
  <defs>
    <style>
      .st0 {
        fill: #596f31;
      }

      .st1 {
        stroke-width: 8px;
      }

      .st1, .st2, .st3, .st4 {
        fill: none;
        stroke: #fefdeb;
        stroke-linecap: round;
        stroke-linejoin: round;
      }

      .st2 {
        stroke-width: 9.43px;
      }

      .st3 {
        stroke-width: 7px;
      }

      .st4 {
        stroke-width: 6px;
      }
    </style>
  </defs>
  <circle class="st0" cx="141.73" cy="141.73" r="113.36"/>
  <path class="st2" d="M56.54,185.34L170.8,57.08c2.59-2.68,97.04,62.93,27.85,137.57-71.48,77.11-144.74-6.58-142.12-9.3Z"/>
  <path class="st4" d="M108.02,160.1s7.62,26.84,17.78,14.65c10.36-12.43-17.78-14.65-17.78-14.65Z"/>
  <path class="st4" d="M148.45,149.93s6.55,27.12,17.19,15.34c10.85-12.01-17.19-15.34-17.19-15.34Z"/>
  <path class="st3" d="M153.5,108.94s6.13,27.22,16.95,15.6c11.03-11.84-16.95-15.6-16.95-15.6Z"/>
  <path class="st1" d="M71.53,168.7s57.82,73.23,111.91,12.41-23.67-108.96-23.67-108.96"/>
</svg>